<?xml version="1.0" encoding="utf-8"?>
<!-- Generator: Adobe Illustrator 24.3.0, SVG Export Plug-In . SVG Version: 6.00 Build 0)  -->
<svg version="1.1" id="Layer_1" xmlns="http://www.w3.org/2000/svg" xmlns:xlink="http://www.w3.org/1999/xlink" x="0px" y="0px"
	 viewBox="0 0 60 60" style="enable-background:new 0 0 60 60;" xml:space="preserve">
<style type="text/css">
	.st0{fill:none;stroke:#2D0202;stroke-width:0.3;stroke-miterlimit:3;}
	.st1{fill:#312C30;}
</style>
<circle class="st0" cx="30" cy="30" r="28.5"/>
<g>
	<g>
		<g>
			<path class="st1" d="M39.4,25c-7.4,0-7.5,7.4-7.5,7.5c0,0-0.5,7.4,7.5,7.4c0,0,6,0.3,6.6-4.4c0.1-0.4-0.3-0.8-0.7-0.8h-2.1
				c-0.3,0-0.6,0.2-0.7,0.5c-0.2,0.6-0.8,1.6-3,1.6c0,0-2.9,0.2-3.3-2.6c-0.1-0.4,0.3-0.8,0.7-0.8h8.7c0.4,0,0.7-0.3,0.7-0.7
				C46.3,30.8,45.9,25,39.4,25z M36.6,30.9c-0.3,0-0.5-0.3-0.4-0.5c0.3-0.9,1.1-2.5,3.3-2.5c2.3,0,2.8,1.7,2.9,2.5
				c0,0.2-0.2,0.5-0.4,0.5H36.6z M27.6,29.1c-0.2-0.1-0.3-0.4-0.1-0.5c0.8-0.4,1.8-1.3,1.8-3.3c0-3.5-2.4-5.2-5.5-5.2h-9.6
				c-0.3,0-0.5,0.2-0.5,0.5V39c0,0.3,0.2,0.5,0.5,0.5h9.6c0,0,6.2,0.2,6.2-5.7C30.1,33.8,30.3,30,27.6,29.1z M18.2,23.9
				c0-0.2,0.2-0.4,0.4-0.4h5.3c0,0,1.4,0,1.4,2c0,2-0.8,2.3-1.7,2.3h-4.9c-0.2,0-0.4-0.2-0.4-0.4V23.9z M23.6,36.1h-5
				c-0.2,0-0.4-0.2-0.4-0.4v-4.5c0-0.2,0.2-0.4,0.4-0.4h5.3c0,0,2.1,0,2,2.7C25.9,35.8,24.4,36,23.6,36.1z M35.2,20.9v1.7
				c0,0.2,0.2,0.4,0.4,0.4h7.3c0.2,0,0.4-0.2,0.4-0.4v-1.7c0-0.2-0.2-0.4-0.4-0.4h-7.3C35.4,20.5,35.2,20.7,35.2,20.9z"/>
		</g>
	</g>
</g>
</svg>
