<?xml version="1.0" encoding="utf-8"?>
<!-- Generator: Adobe Illustrator 24.3.0, SVG Export Plug-In . SVG Version: 6.00 Build 0)  -->
<svg version="1.1" id="Layer_1" xmlns="http://www.w3.org/2000/svg" xmlns:xlink="http://www.w3.org/1999/xlink" x="0px" y="0px"
	 viewBox="0 0 60 60" style="enable-background:new 0 0 60 60;" xml:space="preserve" width="60" heigth="60">
<style type="text/css">
	.st0{fill:none;stroke:#ffffff;stroke-width:0.3;stroke-miterlimit:3;}
	.st1{fill:#ffffff;}
</style>
<circle class="st0" cx="30" cy="30" r="28.5"/>
<g>
	<g>
		<g>
			<g>
				<path class="st1" d="M45.7,31.8v10.2c0,0.3-0.2,0.5-0.5,0.5H40c-0.3,0-0.5-0.2-0.5-0.5v-9.5c0-2.5-0.9-4.2-3.1-4.2
					c-1.7,0-2.7,1.1-3.2,2.3c-0.2,0.4-0.2,0.9-0.2,1.5v9.9c0,0.3-0.2,0.5-0.5,0.5h-5.3c-0.3,0-0.5-0.2-0.5-0.5
					c0-2.5,0.1-14.7,0-17.6c0-0.3,0.2-0.5,0.5-0.5h5.2c0.3,0,0.5,0.2,0.5,0.5v2.2c0,0,0,0,0,0.1h0v-0.1c0.8-1.3,2.3-3.1,5.6-3.1
					C42.7,23.4,45.7,26.1,45.7,31.8L45.7,31.8z M17.8,42.4h5.3c0.3,0,0.5-0.2,0.5-0.5V24.3c0-0.3-0.2-0.5-0.5-0.5h-5.3
					c-0.3,0-0.5,0.2-0.5,0.5v17.6C17.4,42.2,17.6,42.4,17.8,42.4z"/>
			</g>
		</g>
	</g>
	<g>
		<circle class="st1" cx="20.2" cy="18.2" r="3.3"/>
	</g>
</g>
</svg>
