<?xml version="1.0" encoding="utf-8"?>
<!-- Generator: Adobe Illustrator 24.2.3, SVG Export Plug-In . SVG Version: 6.00 Build 0)  -->
<svg version="1.1" id="Layer_1" xmlns="http://www.w3.org/2000/svg" xmlns:xlink="http://www.w3.org/1999/xlink" x="0px" y="0px"
	 viewBox="0 0 200 200" style="enable-background:new 0 0 200 200;" xml:space="preserve" width="60" height="60">
<style type="text/css">
	.st0{fill:#FFFFFF;}
	.st1{fill:none;stroke:#FFFFFF;stroke-miterlimit:10;}
</style>
<g>
	<g>
		<g>
			<g>
				<path class="st0" d="M159.94,107.98v38.72c0,0.96-0.78,1.73-1.73,1.73h-19.99c-0.96,0-1.73-0.78-1.73-1.73V110.7
					c0-9.48-3.39-15.95-11.88-15.95c-6.48,0-10.33,4.36-12.03,8.58c-0.62,1.51-0.78,3.6-0.78,5.72v37.67c0,0.96-0.78,1.73-1.73,1.73
					H90.08c-0.96,0-1.74-0.77-1.73-1.73c0.04-9.59,0.25-56.12,0.04-67.06c-0.02-0.97,0.76-1.75,1.73-1.75h19.94
					c0.96,0,1.73,0.78,1.73,1.73v8.26c-0.05,0.08-0.11,0.16-0.16,0.23h0.16v-0.23c3.12-4.8,8.68-11.65,21.14-11.65
					C148.37,76.24,159.94,86.32,159.94,107.98L159.94,107.98z M53.65,148.44h19.98c0.96,0,1.73-0.78,1.73-1.73V79.63
					c0-0.96-0.78-1.73-1.73-1.73H53.65c-0.96,0-1.73,0.78-1.73,1.73v67.08C51.92,147.66,52.7,148.44,53.65,148.44z"/>
			</g>
		</g>
	</g>
	<g>
		<circle class="st0" cx="62.94" cy="56.37" r="12.56"/>
	</g>
</g>
<circle class="st1" cx="97.34" cy="100.94" r="94.96"/>
</svg>
