<?xml version="1.0" encoding="utf-8"?>
<!-- Generator: Adobe Illustrator 24.2.3, SVG Export Plug-In . SVG Version: 6.00 Build 0)  -->
<svg version="1.1" id="Layer_1" xmlns="http://www.w3.org/2000/svg" xmlns:xlink="http://www.w3.org/1999/xlink" x="0px" y="0px"
	 viewBox="0 0 200 200" style="enable-background:new 0 0 200 200;" xml:space="preserve">
<style type="text/css">
	.st0{fill:#312D30;}
	.st1{fill:none;stroke:#312D30;stroke-miterlimit:10;}
</style>
<g>
	<g>
		<g>
			<g>
				<path class="st0" d="M122.06,103.72v15.29c0,0.38-0.31,0.68-0.68,0.68h-7.89c-0.38,0-0.68-0.31-0.68-0.68v-14.22
					c0-3.74-1.34-6.3-4.69-6.3c-2.56,0-4.08,1.72-4.75,3.39c-0.24,0.6-0.31,1.42-0.31,2.26v14.87c0,0.38-0.31,0.68-0.68,0.68h-7.89
					c-0.38,0-0.69-0.31-0.68-0.68c0.02-3.79,0.1-22.16,0.02-26.48c-0.01-0.38,0.3-0.69,0.68-0.69h7.88c0.38,0,0.68,0.31,0.68,0.68
					v3.26c-0.02,0.03-0.04,0.06-0.06,0.09h0.06v-0.09c1.23-1.89,3.43-4.6,8.35-4.6C117.49,91.18,122.06,95.17,122.06,103.72
					L122.06,103.72z M80.09,119.7h7.89c0.38,0,0.68-0.31,0.68-0.68V92.52c0-0.38-0.31-0.68-0.68-0.68h-7.89
					c-0.38,0-0.68,0.31-0.68,0.68v26.49C79.41,119.39,79.71,119.7,80.09,119.7z"/>
			</g>
		</g>
	</g>
	<g>
		<circle class="st0" cx="83.76" cy="83.34" r="4.96"/>
	</g>
</g>
<circle class="st1" cx="97.34" cy="100.94" r="37.5"/>
</svg>
