<?xml version="1.0" encoding="utf-8"?>
<!-- Generator: Adobe Illustrator 24.2.3, SVG Export Plug-In . SVG Version: 6.00 Build 0)  -->
<svg version="1.1" id="Design" xmlns="http://www.w3.org/2000/svg" xmlns:xlink="http://www.w3.org/1999/xlink" x="0px" y="0px"
	 viewBox="0 0 100 100" style="enable-background:new 0 0 100 100;" xml:space="preserve">
<style type="text/css">
	.st0{fill:#333033;}
	.st1{fill-rule:evenodd;clip-rule:evenodd;fill:#60FC7C;}
	.st2{fill:#FEFB01;}
	.st3{fill:#FF0000;}
	.st4{fill:#33CCFF;}
	.st5{fill-rule:evenodd;clip-rule:evenodd;fill:#FFFFFF;}
	.st6{fill-rule:evenodd;clip-rule:evenodd;fill:#3C5A99;}
	.st7{fill:url(#SVGID_1_);}
	.st8{fill:#4176FA;}
	.st9{fill:#FF0084;}
	.st10{fill:#007AB9;}
	.st11{fill:#F23F7E;}
	.st12{fill-rule:evenodd;clip-rule:evenodd;fill:#333033;}
	.st13{fill:none;stroke:#333033;stroke-miterlimit:10;}
</style>
<g>
	<g>
		<g>
			<g>
				<path class="st0" d="M73.15,53.12v15.29c0,0.38-0.31,0.68-0.68,0.68h-7.89c-0.38,0-0.68-0.31-0.68-0.68V54.19
					c0-3.74-1.34-6.3-4.69-6.3c-2.56,0-4.08,1.72-4.75,3.39c-0.24,0.6-0.31,1.42-0.31,2.26v14.87c0,0.38-0.31,0.68-0.68,0.68h-7.89
					c-0.38,0-0.69-0.31-0.68-0.68c0.02-3.79,0.1-22.16,0.02-26.48c-0.01-0.38,0.3-0.69,0.68-0.69h7.88c0.38,0,0.68,0.31,0.68,0.68
					v3.26c-0.02,0.03-0.04,0.06-0.06,0.09h0.06v-0.09c1.23-1.89,3.43-4.6,8.35-4.6C68.58,40.58,73.15,44.56,73.15,53.12L73.15,53.12
					z M31.18,69.09h7.89c0.38,0,0.68-0.31,0.68-0.68V41.92c0-0.38-0.31-0.68-0.68-0.68h-7.89c-0.38,0-0.68,0.31-0.68,0.68v26.49
					C30.5,68.79,30.8,69.09,31.18,69.09z"/>
			</g>
		</g>
	</g>
	<g>
		<circle class="st0" cx="34.85" cy="32.73" r="4.96"/>
	</g>
</g>
<g>
	<g>
		<g>
			<path class="st1" d="M-756.24,627.92c-9.54,0-17.3,7.76-17.3,17.3c0,3.36,0.95,6.58,2.76,9.38l-2.63,5.79
				c-0.24,0.53-0.15,1.16,0.23,1.6c0.29,0.34,0.71,0.53,1.15,0.53c0.13,0,0.27-0.02,0.4-0.05l7.24-1.99c2.5,1.34,5.3,2.04,8.15,2.04
				c9.54,0,17.3-7.76,17.3-17.3C-738.95,635.68-746.71,627.92-756.24,627.92z M-756.24,659.49c-2.53,0-5.01-0.67-7.19-1.94
				c-0.23-0.14-0.5-0.21-0.76-0.21c-0.13,0-0.27,0.02-0.4,0.05l-4.73,1.3l1.65-3.63c0.22-0.49,0.17-1.07-0.15-1.51
				c-1.76-2.44-2.69-5.33-2.69-8.34c0-7.87,6.4-14.28,14.28-14.28c7.87,0,14.28,6.4,14.28,14.28
				C-741.97,653.09-748.37,659.49-756.24,659.49z"/>
		</g>
		<g>
			<path class="st1" d="M-749.59,647.81c-0.72-0.43-1.67-0.92-2.52-0.57c-0.65,0.27-1.07,1.29-1.5,1.82
				c-0.22,0.27-0.48,0.31-0.81,0.18c-2.46-0.98-4.34-2.62-5.7-4.88c-0.23-0.35-0.19-0.63,0.09-0.95c0.41-0.48,0.92-1.03,1.04-1.68
				c0.11-0.65-0.19-1.41-0.46-1.99c-0.34-0.74-0.73-1.79-1.47-2.21c-0.68-0.38-1.58-0.17-2.19,0.32c-1.05,0.85-1.55,2.19-1.54,3.51
				c0,0.38,0.05,0.75,0.14,1.12c0.21,0.87,0.62,1.69,1.07,2.47c0.34,0.58,0.72,1.15,1.12,1.7c1.31,1.79,2.95,3.34,4.84,4.5
				c0.95,0.58,1.97,1.09,3.02,1.44c1.18,0.39,2.24,0.8,3.52,0.56c1.34-0.25,2.66-1.08,3.19-2.37c0.16-0.38,0.24-0.81,0.15-1.21
				C-747.79,648.7-748.92,648.21-749.59,647.81z"/>
		</g>
	</g>
</g>
<g>
	<g>
		<g>
			<path class="st2" d="M-838.82,656.89c0-0.2,0-0.39,0-0.59c0.24-0.28,0.49-0.52,0.89-0.59c3.08-0.61,5.15-2.58,6.7-5.16
				c1.31-2.17,1.1-2.67-1.31-3.52c-0.14-0.05-0.28-0.09-0.42-0.14c-0.52-0.21-1.04-0.44-1.47-0.82c-1.08-0.94-0.44-2.29,0.83-2.6
				c0.93-0.22,1.74,0.37,2.64,0.49c0.6,0.08,0.84-0.13,0.77-0.77c-0.19-1.66-0.19-3.32-0.11-4.98c0.15-3.17,1.71-5.59,4.35-7.15
				c3.86-2.29,7.89-2.31,11.77-0.04c2.42,1.42,3.99,3.58,4.33,6.46c0.22,1.88,0.13,3.76-0.02,5.64c-0.06,0.82,0.1,0.97,0.91,0.78
				c1-0.23,1.84-0.75,2.88-0.29c0.56,0.24,1.04,0.77,1.03,1.38c-0.01,0.42-0.25,0.8-0.57,1.07c-0.48,0.42-1.11,0.65-1.69,0.89
				c-0.45,0.18-0.92,0.33-1.37,0.53c-0.91,0.43-1.17,0.99-0.75,1.89c1.48,3.12,3.64,5.49,7.15,6.31c0.43,0.1,0.77,0.28,1.03,0.62
				c0,0.2,0,0.39,0,0.59c-0.33,0.68-0.93,1.06-1.6,1.32c-0.69,0.26-1.37,0.55-2.11,0.6c-1.02,0.07-1.55,0.51-1.71,1.57
				c-0.15,1.01-0.45,1.15-1.48,1.07c-0.24-0.02-0.48-0.06-0.72-0.11c-2.01-0.36-3.9-0.15-5.55,1.18c-0.32,0.26-0.68,0.48-1.03,0.7
				c-2.82,1.83-5.7,2.04-8.64,0.32c-0.8-0.47-1.56-1.01-2.34-1.52c-0.64-0.42-1.34-0.66-2.11-0.77c-1.22-0.18-2.39,0.09-3.57,0.22
				c-0.61,0.07-1.2-0.11-1.23-0.74c-0.08-1.52-1.01-1.89-2.29-2.03c-0.6-0.07-1.18-0.31-1.75-0.54
				C-837.97,657.91-838.53,657.54-838.82,656.89z"/>
		</g>
	</g>
</g>
<g>
	<g>
		<g>
			<path class="st3" d="M-677.54,642.53c0-4.06-3.29-7.36-7.36-7.36h-19.08c-4.06,0-7.36,3.29-7.36,7.36v8.94
				c0,4.06,3.29,7.36,7.36,7.36h19.08c4.06,0,7.36-3.29,7.36-7.36V642.53z M-689.58,647.45l-7.61,4.17
				c-0.33,0.18-0.63-0.06-0.63-0.44v-8.57c0-0.38,0.31-0.62,0.64-0.43l7.66,4.39C-689.18,646.77-689.24,647.26-689.58,647.45z"/>
		</g>
	</g>
</g>
<g>
	<g>
		<g>
			<path class="st4" d="M-616.82,634.59c-1.06,0.48-2.23,0.77-3.37,0.96c0.54-0.09,1.34-1.08,1.66-1.47
				c0.49-0.61,0.89-1.3,1.12-2.05c0.03-0.06,0.05-0.13-0.01-0.18c-0.07-0.03-0.12-0.01-0.18,0.02c-1.28,0.68-2.6,1.18-4.01,1.53
				c-0.12,0.03-0.2,0-0.28-0.07c-0.12-0.13-0.23-0.26-0.35-0.36c-0.59-0.5-1.23-0.9-1.94-1.19c-0.94-0.38-1.97-0.55-2.98-0.48
				c-0.98,0.06-1.95,0.34-2.82,0.8c-0.88,0.46-1.66,1.09-2.28,1.86c-0.64,0.79-1.12,1.73-1.36,2.73c-0.23,0.96-0.22,1.91-0.07,2.88
				c0.02,0.16,0.01,0.18-0.14,0.16c-5.5-0.82-10.07-2.79-13.77-7.01c-0.16-0.18-0.25-0.18-0.38,0.01c-1.62,2.43-0.83,6.33,1.19,8.25
				c0.27,0.26,0.55,0.51,0.85,0.74c-0.11,0.02-1.46-0.12-2.66-0.74c-0.16-0.1-0.24-0.04-0.26,0.14c-0.01,0.26,0.01,0.5,0.04,0.79
				c0.31,2.46,2.02,4.74,4.35,5.63c0.28,0.12,0.58,0.22,0.88,0.27c-0.53,0.12-1.08,0.2-2.61,0.08c-0.19-0.04-0.26,0.06-0.19,0.24
				c1.15,3.13,3.62,4.06,5.48,4.58c0.25,0.04,0.5,0.04,0.75,0.1c-0.01,0.02-0.03,0.02-0.04,0.04c-0.61,0.94-2.75,1.63-3.74,1.98
				c-1.81,0.63-3.77,0.91-5.68,0.73c-0.31-0.04-0.37-0.04-0.45,0c-0.08,0.05-0.01,0.12,0.09,0.2c0.39,0.26,0.78,0.48,1.18,0.7
				c1.21,0.64,2.48,1.15,3.8,1.52c6.82,1.88,14.51,0.5,19.63-4.59c4.02-4,5.43-9.51,5.43-15.03c0-0.22,0.26-0.34,0.41-0.45
				c1.05-0.79,1.88-1.73,2.66-2.78c0.18-0.24,0.16-0.45,0.16-0.53c0-0.01,0-0.03,0-0.03C-616.7,634.5-616.69,634.53-616.82,634.59z"
				/>
		</g>
		<g>
			<path class="st5" d="M-640.18,658.68C-637.35,658.68-640.04,658.68-640.18,658.68C-639.8,658.68-640.19,658.68-640.18,658.68z"/>
		</g>
		<g>
			<path class="st5" d="M-640.18,658.68C-640.22,658.68-640.73,658.68-640.18,658.68C-640.18,658.68-640.26,658.68-640.18,658.68z"
				/>
		</g>
		<g>
			<path class="st5" d="M-639.05,658.71C-639.05,658.65-638.46,658.71-639.05,658.71C-639.05,658.68-638.98,658.71-639.05,658.71z"
				/>
		</g>
		<g>
			<path class="st5" d="M-627.24,631.33c-0.04,0.03-0.09,0.03-0.14,0C-627.33,631.33-627.28,631.33-627.24,631.33z"/>
		</g>
	</g>
</g>
<g>
	<g>
		<path class="st6" d="M-585.53,645.18v16.61c0,0.24,0.19,0.43,0.43,0.43h6.17c0.24,0,0.43-0.19,0.43-0.43v-16.88h4.47
			c0.22,0,0.41-0.17,0.43-0.4l0.43-5.08c0.02-0.25-0.18-0.47-0.43-0.47h-4.9v-3.61c0-0.85,0.69-1.53,1.53-1.53h3.45
			c0.24,0,0.43-0.19,0.43-0.43v-5.08c0-0.24-0.19-0.43-0.43-0.43h-5.82c-3.42,0-6.19,2.77-6.19,6.19v4.9h-3.08
			c-0.24,0-0.43,0.19-0.43,0.43v5.08c0,0.24,0.19,0.43,0.43,0.43h3.08V645.18z"/>
	</g>
</g>
<g>
	<linearGradient id="SVGID_1_" gradientUnits="userSpaceOnUse" x1="-544.213" y1="659.6826" x2="-492.5061" y2="615.6547">
		<stop  offset="1.104800e-03" style="stop-color:#FBE18A"/>
		<stop  offset="0.2094" style="stop-color:#FCBB45"/>
		<stop  offset="0.3765" style="stop-color:#F75274"/>
		<stop  offset="0.5238" style="stop-color:#D53692"/>
		<stop  offset="0.7394" style="stop-color:#8F39CE"/>
		<stop  offset="1" style="stop-color:#5B4FE9"/>
	</linearGradient>
	<path class="st7" d="M-517.95,634.03c-1.16,0-2.11,0.94-2.11,2.11c0,1.16,0.94,2.11,2.11,2.11c1.16,0,2.11-0.94,2.11-2.11
		C-515.84,634.97-516.78,634.03-517.95,634.03z M-527.31,636.73c-4.88,0-8.85,3.97-8.85,8.85c0,4.88,3.97,8.85,8.85,8.85
		c4.88,0,8.85-3.97,8.85-8.85C-518.46,640.7-522.43,636.73-527.31,636.73z M-527.31,651.24c-3.13,0-5.67-2.54-5.67-5.67
		c0-3.13,2.54-5.67,5.67-5.67c3.13,0,5.67,2.54,5.67,5.67C-521.64,648.7-524.19,651.24-527.31,651.24z M-509.46,638.22
		c0-5.96-4.83-10.79-10.79-10.79h-14.24c-5.96,0-10.79,4.83-10.79,10.79v14.24c0,5.96,4.83,10.79,10.79,10.79h14.24
		c5.96,0,10.79-4.83,10.79-10.79V638.22z M-512.84,652.47c0,4.09-3.32,7.41-7.41,7.41h-14.24c-4.09,0-7.41-3.32-7.41-7.41v-14.24
		c0-4.09,3.32-7.41,7.41-7.41h14.24c4.09,0,7.41,3.32,7.41,7.41V652.47z"/>
</g>
<g>
	<g>
		<g>
			<path class="st8" d="M-280.71,640.28c-7.82,0-7.83,7.79-7.83,7.83c0,0-0.54,7.8,7.83,7.8c0,0,6.29,0.36,6.92-4.6
				c0.06-0.44-0.28-0.83-0.72-0.83h-2.19c-0.32,0-0.6,0.2-0.69,0.51c-0.19,0.65-0.86,1.69-3.2,1.69c0,0-3.03,0.2-3.52-2.71
				c-0.07-0.44,0.28-0.83,0.72-0.83h9.09c0.39,0,0.72-0.31,0.73-0.7C-273.5,646.34-273.88,640.28-280.71,640.28z M-283.67,646.4
				c-0.29,0-0.49-0.28-0.41-0.56c0.29-0.9,1.14-2.58,3.44-2.58c2.37,0,2.93,1.77,3.06,2.65c0.04,0.26-0.16,0.48-0.42,0.48H-283.67z
				 M-293.06,644.58c-0.26-0.08-0.29-0.43-0.05-0.56c0.87-0.44,1.9-1.41,1.9-3.51c0-3.64-2.54-5.43-5.76-5.43h-10.07
				c-0.3,0-0.54,0.24-0.54,0.54v19.32c0,0.3,0.24,0.54,0.54,0.54h10.07c0,0,6.48,0.2,6.48-6.02
				C-290.49,649.46-290.28,645.5-293.06,644.58z M-302.9,639.1c0-0.21,0.17-0.39,0.39-0.39h5.55c0,0,1.44,0,1.44,2.12
				c0,2.12-0.84,2.43-1.81,2.43h-5.18c-0.21,0-0.39-0.17-0.39-0.39V639.1z M-297.27,651.86h-5.25c-0.21,0-0.39-0.17-0.39-0.39v-4.68
				c0-0.21,0.17-0.39,0.39-0.39h5.55c0,0,2.15-0.02,2.14,2.81C-294.83,651.59-296.43,651.84-297.27,651.86z M-285.09,635.9v1.74
				c0,0.21,0.17,0.38,0.38,0.38h7.65c0.21,0,0.38-0.17,0.38-0.38v-1.74c0-0.21-0.17-0.38-0.38-0.38h-7.65
				C-284.92,635.52-285.09,635.69-285.09,635.9z"/>
		</g>
	</g>
</g>
<g>
	<g>
		<g>
			<path class="st3" d="M-232.58,654.39c-2.05-0.16-2.91-1.17-4.51-2.15c-0.71,3.75-1.56,7.38-3.55,9.85
				c-0.58,0.72-1.75,0.36-1.8-0.57c-0.3-5.98,1.76-10.72,2.78-15.73c-1.93-3.24,0.23-9.77,4.29-8.16c5,1.98-4.33,12.05,1.93,13.31
				c6.54,1.31,9.21-11.34,5.15-15.46c-5.86-5.94-17.05-0.14-15.67,8.37c0.26,1.62,1.62,2.36,1.45,3.96
				c-0.11,0.99-1.13,1.57-2.04,1.14c-2.59-1.21-3.4-3.87-3.27-7.25c0.23-6.45,5.8-10.97,11.38-11.6c7.06-0.79,13.69,2.59,14.6,9.23
				C-220.81,646.86-225.03,654.98-232.58,654.39L-232.58,654.39z"/>
		</g>
	</g>
</g>
<g>
	<g>
		<g>
			<path class="st9" d="M-450.16,644.99c0,3.3-2.68,5.98-5.98,5.98c-3.31,0-5.99-2.68-5.99-5.98c0-3.3,2.68-5.98,5.99-5.98
				C-452.84,639-450.16,641.68-450.16,644.99z"/>
		</g>
		<g>
			<path class="st8" d="M-468.44,644.99c0,3.3-2.68,5.98-5.99,5.98c-3.3,0-5.98-2.68-5.98-5.98c0-3.3,2.68-5.98,5.98-5.98
				C-471.11,639-468.44,641.68-468.44,644.99z"/>
		</g>
	</g>
</g>
<g>
	<g>
		<g>
			<g>
				<path class="st10" d="M-393.87,647.16v10.68c0,0.26-0.21,0.48-0.48,0.48h-5.51c-0.26,0-0.48-0.21-0.48-0.48v-9.93
					c0-2.61-0.93-4.4-3.28-4.4c-1.79,0-2.85,1.2-3.32,2.37c-0.17,0.42-0.21,0.99-0.21,1.58v10.39c0,0.26-0.21,0.48-0.48,0.48h-5.51
					c-0.26,0-0.48-0.21-0.48-0.48c0.01-2.64,0.07-15.48,0.01-18.49c-0.01-0.27,0.21-0.48,0.48-0.48h5.5c0.26,0,0.48,0.21,0.48,0.48
					v2.28c-0.01,0.02-0.03,0.04-0.04,0.06h0.04v-0.06c0.86-1.32,2.39-3.21,5.83-3.21C-397.06,638.41-393.87,641.19-393.87,647.16
					L-393.87,647.16z M-423.18,658.32h5.51c0.26,0,0.48-0.21,0.48-0.48v-18.5c0-0.26-0.21-0.48-0.48-0.48h-5.51
					c-0.26,0-0.48,0.21-0.48,0.48v18.5C-423.66,658.11-423.45,658.32-423.18,658.32z"/>
			</g>
		</g>
	</g>
	<g>
		<path class="st10" d="M-417.16,632.93c0,1.91-1.55,3.46-3.46,3.46c-1.91,0-3.46-1.55-3.46-3.46s1.55-3.46,3.46-3.46
			C-418.71,629.46-417.16,631.01-417.16,632.93z"/>
	</g>
</g>
<g>
	<g>
		<path class="st11" d="M-349.1,628c-10.79-0.96-19.78,8.04-18.82,18.82c0.74,8.27,7.4,14.93,15.66,15.66
			c10.79,0.96,19.78-8.04,18.82-18.82C-334.17,635.39-340.83,628.73-349.1,628z M-339.3,636.71c1.65,2.19,2.67,4.87,2.83,7.78
			c0.01,0.17-0.15,0.31-0.32,0.27c-3.18-0.64-6.18-0.76-8.99-0.35c-0.12,0.02-0.23-0.05-0.28-0.16c-0.32-0.77-0.65-1.51-0.99-2.22
			c-0.06-0.13,0-0.29,0.13-0.35c2.63-1.2,5.07-2.82,7.23-4.99C-339.58,636.57-339.39,636.58-339.3,636.71z M-341.83,634.47
			c-1.9,1.95-4.07,3.4-6.49,4.49c-0.13,0.06-0.28,0-0.34-0.12c-1.7-3.1-3.39-5.52-4.68-7.2c-0.12-0.16-0.03-0.39,0.16-0.42
			c0.82-0.15,1.66-0.22,2.51-0.22c3.33,0,6.39,1.15,8.82,3.07C-341.73,634.17-341.72,634.36-341.83,634.47z M-356.6,632.52
			c1.2,1.45,3.07,3.93,4.97,7.32c0.08,0.15,0.01,0.34-0.16,0.39c-3.65,1.07-7.79,1.53-12.38,1.71c-0.18,0.01-0.32-0.16-0.27-0.33
			c1.06-4.02,3.85-7.36,7.52-9.15C-356.81,632.39-356.68,632.42-356.6,632.52z M-364.65,645.03c4.94-0.16,9.87-0.64,14.39-2.07
			c0.13-0.04,0.26,0.02,0.32,0.14c0.27,0.57,0.54,1.17,0.81,1.78c0.06,0.14-0.01,0.31-0.16,0.36c-4.49,1.46-8.5,4.43-12.08,8.93
			c-0.1,0.13-0.29,0.14-0.4,0.02c-2-2.18-3.08-5.43-3.13-8.87C-364.91,645.16-364.79,645.04-364.65,645.03z M-359.16,656.31
			c3.3-4.23,6.93-6.95,11.03-8.23c0.14-0.04,0.28,0.03,0.33,0.17c1.06,2.97,1.95,6.29,2.52,9.93c0.02,0.12-0.05,0.25-0.17,0.29
			c-1.62,0.64-3.39,1-5.23,1c-3.15,0-6.07-1.03-8.43-2.78C-359.23,656.61-359.26,656.43-359.16,656.31z M-342.46,656.37
			c-0.56-3.13-1.36-6.03-2.28-8.67c-0.06-0.16,0.05-0.33,0.22-0.35c2.36-0.24,4.87-0.07,7.56,0.52c0.14,0.03,0.24,0.18,0.21,0.32
			c-0.72,3.38-2.64,6.33-5.29,8.36C-342.2,656.66-342.43,656.57-342.46,656.37z"/>
	</g>
</g>
<g>
	<g>
		<g>
			<path class="st12" d="M-756.24,678.27c-9.54,0-17.3,7.76-17.3,17.3c0,3.36,0.95,6.58,2.76,9.38l-2.63,5.79
				c-0.24,0.53-0.15,1.16,0.23,1.6c0.29,0.34,0.71,0.53,1.15,0.53c0.13,0,0.27-0.02,0.4-0.05l7.24-1.99c2.5,1.34,5.3,2.04,8.15,2.04
				c9.54,0,17.3-7.76,17.3-17.3S-746.71,678.27-756.24,678.27z M-756.24,709.84c-2.53,0-5.01-0.67-7.19-1.94
				c-0.23-0.14-0.5-0.21-0.76-0.21c-0.13,0-0.27,0.02-0.4,0.05l-4.73,1.3l1.65-3.63c0.22-0.49,0.17-1.07-0.15-1.51
				c-1.76-2.44-2.69-5.33-2.69-8.34c0-7.87,6.4-14.28,14.28-14.28c7.87,0,14.28,6.4,14.28,14.28S-748.37,709.84-756.24,709.84z"/>
		</g>
		<g>
			<path class="st12" d="M-749.59,698.16c-0.72-0.43-1.67-0.92-2.52-0.57c-0.65,0.27-1.07,1.29-1.5,1.82
				c-0.22,0.27-0.48,0.31-0.81,0.18c-2.46-0.98-4.34-2.62-5.7-4.88c-0.23-0.35-0.19-0.63,0.09-0.95c0.41-0.48,0.92-1.03,1.04-1.68
				c0.11-0.65-0.19-1.41-0.46-1.99c-0.34-0.74-0.73-1.79-1.47-2.21c-0.68-0.38-1.58-0.17-2.19,0.32c-1.05,0.85-1.55,2.19-1.54,3.51
				c0,0.38,0.05,0.75,0.14,1.12c0.21,0.87,0.62,1.69,1.07,2.47c0.34,0.58,0.72,1.15,1.12,1.7c1.31,1.79,2.95,3.34,4.84,4.5
				c0.95,0.58,1.97,1.09,3.02,1.44c1.18,0.39,2.24,0.8,3.52,0.56c1.34-0.25,2.66-1.08,3.19-2.37c0.16-0.38,0.24-0.81,0.15-1.21
				C-747.79,699.05-748.92,698.56-749.59,698.16z"/>
		</g>
	</g>
</g>
<g>
	<g>
		<g>
			<path class="st0" d="M-838.82,707.24c0-0.2,0-0.39,0-0.59c0.24-0.28,0.49-0.52,0.89-0.59c3.08-0.61,5.15-2.58,6.7-5.16
				c1.31-2.17,1.1-2.67-1.31-3.52c-0.14-0.05-0.28-0.09-0.42-0.14c-0.52-0.21-1.04-0.44-1.47-0.82c-1.08-0.94-0.44-2.29,0.83-2.6
				c0.93-0.22,1.74,0.37,2.64,0.49c0.6,0.08,0.84-0.13,0.77-0.77c-0.19-1.66-0.19-3.32-0.11-4.98c0.15-3.17,1.71-5.59,4.35-7.15
				c3.86-2.29,7.89-2.31,11.77-0.04c2.42,1.42,3.99,3.58,4.33,6.46c0.22,1.88,0.13,3.76-0.02,5.64c-0.06,0.82,0.1,0.97,0.91,0.78
				c1-0.23,1.84-0.75,2.88-0.29c0.56,0.24,1.04,0.77,1.03,1.38c-0.01,0.42-0.25,0.8-0.57,1.07c-0.48,0.42-1.11,0.65-1.69,0.89
				c-0.45,0.18-0.92,0.33-1.37,0.53c-0.91,0.43-1.17,0.99-0.75,1.89c1.48,3.12,3.64,5.49,7.15,6.31c0.43,0.1,0.77,0.28,1.03,0.62
				c0,0.2,0,0.39,0,0.59c-0.33,0.68-0.93,1.06-1.6,1.32c-0.69,0.26-1.37,0.55-2.11,0.6c-1.02,0.07-1.55,0.51-1.71,1.57
				c-0.15,1.01-0.45,1.15-1.48,1.07c-0.24-0.02-0.48-0.06-0.72-0.11c-2.01-0.36-3.9-0.15-5.55,1.18c-0.32,0.26-0.68,0.48-1.03,0.7
				c-2.82,1.83-5.7,2.04-8.64,0.32c-0.8-0.47-1.56-1.01-2.34-1.52c-0.64-0.42-1.34-0.66-2.11-0.77c-1.22-0.18-2.39,0.09-3.57,0.22
				c-0.61,0.07-1.2-0.11-1.23-0.74c-0.08-1.52-1.01-1.89-2.29-2.03c-0.6-0.07-1.18-0.31-1.75-0.54
				C-837.97,708.26-838.53,707.89-838.82,707.24z"/>
		</g>
	</g>
</g>
<g>
	<g>
		<g>
			<path class="st0" d="M-677.54,692.88c0-4.06-3.29-7.36-7.36-7.36h-19.08c-4.06,0-7.36,3.29-7.36,7.36v8.94
				c0,4.06,3.29,7.36,7.36,7.36h19.08c4.06,0,7.36-3.29,7.36-7.36V692.88z M-689.58,697.8l-7.61,4.17
				c-0.33,0.18-0.63-0.06-0.63-0.44v-8.57c0-0.38,0.31-0.62,0.64-0.43l7.66,4.39C-689.18,697.12-689.24,697.61-689.58,697.8z"/>
		</g>
	</g>
</g>
<g>
	<g>
		<g>
			<path class="st0" d="M-616.82,684.94c-1.06,0.48-2.23,0.77-3.37,0.96c0.54-0.09,1.34-1.08,1.66-1.47
				c0.49-0.61,0.89-1.3,1.12-2.05c0.03-0.06,0.05-0.13-0.01-0.18c-0.07-0.03-0.12-0.01-0.18,0.01c-1.28,0.68-2.6,1.18-4.01,1.53
				c-0.12,0.03-0.2,0-0.28-0.07c-0.12-0.13-0.23-0.26-0.35-0.36c-0.59-0.5-1.23-0.9-1.94-1.19c-0.94-0.38-1.97-0.55-2.98-0.48
				c-0.98,0.06-1.95,0.34-2.82,0.8c-0.88,0.46-1.66,1.09-2.28,1.86c-0.64,0.79-1.12,1.73-1.36,2.73c-0.23,0.96-0.22,1.91-0.07,2.88
				c0.02,0.16,0.01,0.18-0.14,0.16c-5.5-0.82-10.07-2.79-13.77-7.01c-0.16-0.18-0.25-0.18-0.38,0.01c-1.62,2.43-0.83,6.33,1.19,8.25
				c0.27,0.26,0.55,0.51,0.85,0.74c-0.11,0.02-1.46-0.12-2.66-0.74c-0.16-0.1-0.24-0.04-0.26,0.14c-0.01,0.26,0.01,0.5,0.04,0.79
				c0.31,2.46,2.02,4.74,4.35,5.63c0.28,0.12,0.58,0.22,0.88,0.27c-0.53,0.12-1.08,0.2-2.61,0.08c-0.19-0.04-0.26,0.06-0.19,0.24
				c1.15,3.13,3.62,4.06,5.48,4.58c0.25,0.04,0.5,0.04,0.75,0.1c-0.01,0.02-0.03,0.02-0.04,0.04c-0.61,0.94-2.75,1.63-3.74,1.98
				c-1.81,0.63-3.77,0.91-5.68,0.73c-0.31-0.04-0.37-0.04-0.45,0c-0.08,0.05-0.01,0.12,0.09,0.2c0.39,0.26,0.78,0.48,1.18,0.7
				c1.21,0.64,2.48,1.15,3.8,1.52c6.82,1.88,14.51,0.5,19.63-4.59c4.02-4,5.43-9.51,5.43-15.03c0-0.22,0.26-0.34,0.41-0.45
				c1.05-0.79,1.88-1.73,2.66-2.78c0.18-0.24,0.16-0.45,0.16-0.53c0-0.01,0-0.03,0-0.03C-616.7,684.85-616.69,684.88-616.82,684.94z
				"/>
		</g>
		<g>
			<path class="st12" d="M-640.18,709.03C-637.35,709.03-640.04,709.03-640.18,709.03C-639.8,709.03-640.19,709.03-640.18,709.03z"
				/>
		</g>
		<g>
			<path class="st12" d="M-640.18,709.03C-640.22,709.03-640.73,709.03-640.18,709.03C-640.18,709.03-640.26,709.03-640.18,709.03z"
				/>
		</g>
		<g>
			<path class="st12" d="M-639.05,709.06C-639.05,709-638.46,709.06-639.05,709.06C-639.05,709.03-638.98,709.06-639.05,709.06z"/>
		</g>
		<g>
			<path class="st12" d="M-627.24,681.68c-0.04,0.03-0.09,0.03-0.14,0C-627.33,681.68-627.28,681.68-627.24,681.68z"/>
		</g>
	</g>
</g>
<g>
	<g>
		<path class="st12" d="M-585.53,695.53v16.61c0,0.24,0.19,0.43,0.43,0.43h6.17c0.24,0,0.43-0.19,0.43-0.43v-16.88h4.47
			c0.22,0,0.41-0.17,0.43-0.4l0.43-5.08c0.02-0.25-0.18-0.47-0.43-0.47h-4.9v-3.61c0-0.85,0.69-1.53,1.53-1.53h3.45
			c0.24,0,0.43-0.19,0.43-0.43v-5.08c0-0.24-0.19-0.43-0.43-0.43h-5.82c-3.42,0-6.19,2.77-6.19,6.19v4.9h-3.08
			c-0.24,0-0.43,0.19-0.43,0.43v5.08c0,0.24,0.19,0.43,0.43,0.43h3.08V695.53z"/>
	</g>
</g>
<g>
	<path class="st0" d="M-517.95,684.38c-1.16,0-2.11,0.94-2.11,2.11c0,1.16,0.94,2.11,2.11,2.11c1.16,0,2.11-0.94,2.11-2.11
		C-515.84,685.32-516.78,684.38-517.95,684.38z M-527.31,687.08c-4.88,0-8.85,3.97-8.85,8.85c0,4.88,3.97,8.85,8.85,8.85
		c4.88,0,8.85-3.97,8.85-8.85C-518.46,691.05-522.43,687.08-527.31,687.08z M-527.31,701.59c-3.13,0-5.67-2.54-5.67-5.67
		c0-3.13,2.54-5.67,5.67-5.67c3.13,0,5.67,2.54,5.67,5.67C-521.64,699.05-524.19,701.59-527.31,701.59z M-509.46,688.57
		c0-5.96-4.83-10.79-10.79-10.79h-14.24c-5.96,0-10.79,4.83-10.79,10.79v14.24c0,5.96,4.83,10.79,10.79,10.79h14.24
		c5.96,0,10.79-4.83,10.79-10.79V688.57z M-512.84,702.82c0,4.09-3.32,7.41-7.41,7.41h-14.24c-4.09,0-7.41-3.32-7.41-7.41v-14.24
		c0-4.09,3.32-7.41,7.41-7.41h14.24c4.09,0,7.41,3.32,7.41,7.41V702.82z"/>
</g>
<g>
	<g>
		<g>
			<path class="st0" d="M-280.71,690.63c-7.82,0-7.83,7.79-7.83,7.83c0,0-0.54,7.8,7.83,7.8c0,0,6.29,0.36,6.92-4.6
				c0.06-0.44-0.28-0.83-0.72-0.83h-2.19c-0.32,0-0.6,0.2-0.69,0.51c-0.19,0.65-0.86,1.69-3.2,1.69c0,0-3.03,0.2-3.52-2.71
				c-0.07-0.44,0.28-0.83,0.72-0.83h9.09c0.39,0,0.72-0.31,0.73-0.7C-273.5,696.69-273.88,690.63-280.71,690.63z M-283.67,696.75
				c-0.29,0-0.49-0.28-0.41-0.56c0.29-0.9,1.14-2.58,3.44-2.58c2.37,0,2.93,1.77,3.06,2.65c0.04,0.26-0.16,0.48-0.42,0.48H-283.67z
				 M-293.06,694.93c-0.26-0.08-0.29-0.43-0.05-0.56c0.87-0.44,1.9-1.41,1.9-3.51c0-3.64-2.54-5.43-5.76-5.43h-10.07
				c-0.3,0-0.54,0.24-0.54,0.54v19.32c0,0.3,0.24,0.54,0.54,0.54h10.07c0,0,6.48,0.2,6.48-6.02
				C-290.49,699.81-290.28,695.85-293.06,694.93z M-302.9,689.45c0-0.21,0.17-0.39,0.39-0.39h5.55c0,0,1.44,0,1.44,2.12
				c0,2.12-0.84,2.43-1.81,2.43h-5.18c-0.21,0-0.39-0.17-0.39-0.39V689.45z M-297.27,702.21h-5.25c-0.21,0-0.39-0.17-0.39-0.39
				v-4.68c0-0.21,0.17-0.39,0.39-0.39h5.55c0,0,2.15-0.02,2.14,2.81C-294.83,701.94-296.43,702.19-297.27,702.21z M-285.09,686.25
				V688c0,0.21,0.17,0.38,0.38,0.38h7.65c0.21,0,0.38-0.17,0.38-0.38v-1.74c0-0.21-0.17-0.38-0.38-0.38h-7.65
				C-284.92,685.87-285.09,686.04-285.09,686.25z"/>
		</g>
	</g>
</g>
<g>
	<g>
		<g>
			<path class="st0" d="M-232.58,704.74c-2.05-0.16-2.91-1.17-4.51-2.15c-0.71,3.75-1.56,7.38-3.55,9.85
				c-0.58,0.72-1.75,0.36-1.8-0.57c-0.3-5.98,1.76-10.72,2.78-15.73c-1.93-3.24,0.23-9.77,4.29-8.16c5,1.98-4.33,12.05,1.93,13.31
				c6.54,1.31,9.21-11.34,5.15-15.46c-5.86-5.94-17.05-0.14-15.67,8.37c0.26,1.62,1.62,2.36,1.45,3.96
				c-0.11,0.99-1.13,1.57-2.04,1.14c-2.59-1.21-3.4-3.87-3.27-7.25c0.23-6.45,5.8-10.97,11.38-11.6c7.06-0.79,13.69,2.59,14.6,9.23
				C-220.81,697.21-225.03,705.33-232.58,704.74L-232.58,704.74z"/>
		</g>
	</g>
</g>
<g>
	<g>
		<g>
			<path class="st0" d="M-450.16,695.34c0,3.3-2.68,5.98-5.98,5.98c-3.31,0-5.99-2.68-5.99-5.98c0-3.3,2.68-5.98,5.99-5.98
				C-452.84,689.35-450.16,692.03-450.16,695.34z"/>
		</g>
		<g>
			<path class="st0" d="M-468.44,695.34c0,3.3-2.68,5.98-5.99,5.98c-3.3,0-5.98-2.68-5.98-5.98c0-3.3,2.68-5.98,5.98-5.98
				C-471.11,689.35-468.44,692.03-468.44,695.34z"/>
		</g>
	</g>
</g>
<g>
	<g>
		<g>
			<g>
				<path class="st0" d="M-393.87,697.51v10.68c0,0.26-0.21,0.48-0.48,0.48h-5.51c-0.26,0-0.48-0.21-0.48-0.48v-9.93
					c0-2.61-0.93-4.4-3.28-4.4c-1.79,0-2.85,1.2-3.32,2.37c-0.17,0.42-0.21,0.99-0.21,1.58v10.39c0,0.26-0.21,0.48-0.48,0.48h-5.51
					c-0.26,0-0.48-0.21-0.48-0.48c0.01-2.64,0.07-15.48,0.01-18.49c-0.01-0.27,0.21-0.48,0.48-0.48h5.5c0.26,0,0.48,0.21,0.48,0.48
					v2.28c-0.01,0.02-0.03,0.04-0.04,0.06h0.04v-0.06c0.86-1.32,2.39-3.21,5.83-3.21C-397.06,688.76-393.87,691.54-393.87,697.51
					L-393.87,697.51z M-423.18,708.67h5.51c0.26,0,0.48-0.21,0.48-0.48v-18.5c0-0.26-0.21-0.48-0.48-0.48h-5.51
					c-0.26,0-0.48,0.21-0.48,0.48v18.5C-423.66,708.46-423.45,708.67-423.18,708.67z"/>
			</g>
		</g>
	</g>
	<g>
		<path class="st0" d="M-417.16,683.28c0,1.91-1.55,3.46-3.46,3.46c-1.91,0-3.46-1.55-3.46-3.46c0-1.91,1.55-3.46,3.46-3.46
			C-418.71,679.81-417.16,681.36-417.16,683.28z"/>
	</g>
</g>
<g>
	<g>
		<path class="st0" d="M-349.1,678.35c-10.79-0.96-19.78,8.04-18.82,18.82c0.74,8.27,7.4,14.93,15.66,15.66
			c10.79,0.96,19.78-8.04,18.82-18.82C-334.17,685.74-340.83,679.08-349.1,678.35z M-339.3,687.06c1.65,2.19,2.67,4.87,2.83,7.78
			c0.01,0.17-0.15,0.31-0.32,0.27c-3.18-0.64-6.18-0.76-8.99-0.35c-0.12,0.02-0.23-0.05-0.28-0.16c-0.32-0.77-0.65-1.51-0.99-2.22
			c-0.06-0.13,0-0.29,0.13-0.35c2.63-1.2,5.07-2.82,7.23-4.99C-339.58,686.92-339.39,686.93-339.3,687.06z M-341.83,684.82
			c-1.9,1.95-4.07,3.4-6.49,4.49c-0.13,0.06-0.28,0-0.34-0.12c-1.7-3.1-3.39-5.52-4.68-7.2c-0.12-0.16-0.03-0.39,0.16-0.42
			c0.82-0.15,1.66-0.22,2.51-0.22c3.33,0,6.39,1.15,8.82,3.07C-341.73,684.52-341.72,684.71-341.83,684.82z M-356.6,682.87
			c1.2,1.45,3.07,3.93,4.97,7.32c0.08,0.15,0.01,0.34-0.16,0.39c-3.65,1.07-7.79,1.53-12.38,1.71c-0.18,0.01-0.32-0.16-0.27-0.33
			c1.06-4.02,3.85-7.35,7.52-9.15C-356.81,682.74-356.68,682.77-356.6,682.87z M-364.65,695.38c4.94-0.16,9.87-0.64,14.39-2.07
			c0.13-0.04,0.26,0.02,0.32,0.14c0.27,0.57,0.54,1.16,0.81,1.77c0.06,0.14-0.01,0.31-0.16,0.36c-4.49,1.46-8.5,4.43-12.08,8.93
			c-0.1,0.13-0.29,0.14-0.4,0.02c-2-2.18-3.08-5.43-3.13-8.87C-364.91,695.51-364.79,695.39-364.65,695.38z M-359.16,706.66
			c3.3-4.23,6.93-6.95,11.03-8.23c0.14-0.04,0.28,0.03,0.33,0.17c1.06,2.97,1.95,6.29,2.52,9.93c0.02,0.12-0.05,0.25-0.17,0.29
			c-1.62,0.64-3.39,1-5.23,1c-3.15,0-6.07-1.03-8.43-2.78C-359.23,706.96-359.26,706.78-359.16,706.66z M-342.46,706.72
			c-0.56-3.13-1.36-6.03-2.28-8.67c-0.06-0.16,0.05-0.33,0.22-0.35c2.36-0.24,4.87-0.07,7.56,0.52c0.14,0.03,0.24,0.18,0.21,0.32
			c-0.72,3.38-2.64,6.33-5.29,8.36C-342.2,707.01-342.43,706.92-342.46,706.72z"/>
	</g>
</g>
<circle class="st13" cx="50" cy="50" r="37.5"/>
</svg>
